<svg xmlns="http://www.w3.org/2000/svg" data-name="Layer 316" viewBox="0 0 48.25 48.25"><path fill="#ffb703" d="M4.81 0h4.15a1.52 1.52 0 0 1 1.51 1.51v45.24a1.51 1.51 0 0 1-1.51 1.5H4.81A4.81 4.81 0 0 1 0 43.44v-4.77h4.07a1.5 1.5 0 1 0 0-3H0v-10h4.07a1.5 1.5 0 0 0 0-3H0v-10h4.07a1.5 1.5 0 1 0 0-3H0V4.86A4.82 4.82 0 0 1 4.81 0Z"/><path fill="#e63946" d="M43.44 0H14.97a1.51 1.51 0 0 0-1.5 1.51v45.24a1.5 1.5 0 0 0 1.5 1.5h28.48a4.8 4.8 0 0 0 4.8-4.81V4.81A4.83 4.83 0 0 0 43.44 0Zm-1.37 18.2a2.35 2.35 0 0 1-2.36 2.36H25.04a2.35 2.35 0 0 1-2.36-2.36v-7.33a2.36 2.36 0 0 1 2.36-2.37h14.67a2.36 2.36 0 0 1 2.36 2.37Z"/></svg>